<svg xmlns="http://www.w3.org/2000/svg" width="430" height="430" fill="none" viewBox="0 0 430 430"><g stroke="#fff" stroke-linejoin="round" stroke-width="12"><path d="M219.5 321.762c59.098 0 107.006-47.909 107.006-107.006S278.598 107.75 219.5 107.75s-107.006 47.908-107.006 107.006c0 23.559 7.613 45.339 20.514 63.015l-8.452 44.979 41.12-15.49c15.811 9.22 34.201 14.502 53.824 14.502Z"/><path stroke-linecap="round" stroke-miterlimit="16" d="M180.326 152.926c-1.672-2.341-10.364 5.874-19.343 18.291s-1.098 37.635 17.528 56.261l29.037 29.038c18.626 18.626 43.796 26.41 56.117 17.336 12.322-9.074 20.728-17.575 18.77-19.008s-7.88-5.731-13.229-9.647-11.033-8.024-12.657-9.218c-1.623-1.194-6.161 1.003-10.077 4.919s-8.549 5.636-10.316 3.869l-22.638-22.638-23.306-23.307c-2.149-2.149-.717-7.068 3.2-10.984 3.916-3.917 6.017-8.597 4.68-10.412a1763 1763 0 0 0-8.597-11.796c-3.343-4.633-7.45-10.364-9.169-12.704"/><path d="M55 75c0-11.046 8.954-20 20-20h280c11.046 0 20 8.954 20 20v280c0 11.046-8.954 20-20 20H75c-11.046 0-20-8.954-20-20z"/></g></svg>